STARTFONT 2.1
FONT -xos4-Crispal-Medium-R-Normal--20-200-72-72-C-100-ISO10646-1
SIZE 20 72 72
FONTBOUNDINGBOX 10 20 0 -4
COMMENT "Generated by fontforge, http://fontforge.sourceforge.net"
STARTPROPERTIES 24
FONTBOUNDINGBOX "10 20 0 -4"
FAMILY_NAME "Crispal"
FOUNDRY "drakmaniso"
SETWIDTH_NAME "Normal"
ADD_STYLE_NAME ""
COPYRIGHT "Copyright (C) 2020 Laurent Moussault"
NOTICE "Licensed under the SIL Open Font License, Version 1.1"
WEIGHT_NAME "Medium"
SLANT "R"
PIXEL_SIZE 20
POINT_SIZE 200
RESOLUTION_X 72
RESOLUTION_Y 72
SPACING "C"
AVERAGE_WIDTH 100
CHARSET_REGISTRY "ISO10646"
CHARSET_ENCODING "1"
MIN_SPACE 10
WEIGHT 10
X_HEIGHT 16
QUAD_WIDTH 10
DEFAULT_CHAR 63
FONT_DESCENT 4
FONT_ASCENT 16
ENDPROPERTIES
CHARS 145
STARTCHAR uni0000
ENCODING 0
SWIDTH 500 0
DWIDTH 10 0
BBX 7 13 1 0
BITMAP
C6
82
82
00
00
82
82
82
00
00
82
82
C6
ENDCHAR
STARTCHAR uni0001
ENCODING 1
SWIDTH 500 0
DWIDTH 10 0
BBX 9 9 0 2
BITMAP
0800
1C00
3E00
7F00
FF80
7F00
3E00
1C00
0800
ENDCHAR
STARTCHAR uni0002
ENCODING 2
SWIDTH 500 0
DWIDTH 10 0
BBX 10 20 0 -4
BITMAP
AA80
5540
AA80
5540
AA80
5540
AA80
5540
AA80
5540
AA80
5540
AA80
5540
AA80
5540
AA80
5540
AA80
5540
ENDCHAR
STARTCHAR uni0003
ENCODING 3
SWIDTH 500 0
DWIDTH 10 0
BBX 8 15 1 -1
BITMAP
88
88
88
F8
88
88
88
00
1F
04
04
04
04
04
04
ENDCHAR
STARTCHAR uni0004
ENCODING 4
SWIDTH 500 0
DWIDTH 10 0
BBX 8 15 1 -1
BITMAP
F8
80
80
E0
80
80
80
00
1F
10
10
1C
10
10
10
ENDCHAR
STARTCHAR uni0005
ENCODING 5
SWIDTH 500 0
DWIDTH 10 0
BBX 8 15 1 -1
BITMAP
70
88
80
80
80
88
70
00
1E
11
11
1E
14
12
11
ENDCHAR
STARTCHAR uni0006
ENCODING 6
SWIDTH 500 0
DWIDTH 10 0
BBX 8 15 1 -1
BITMAP
80
80
80
80
80
80
F8
00
1F
10
10
1C
10
10
10
ENDCHAR
STARTCHAR uni0007
ENCODING 7
SWIDTH 500 0
DWIDTH 10 0
BBX 5 5 2 10
BITMAP
70
88
88
88
70
ENDCHAR
STARTCHAR uni0008
ENCODING 8
SWIDTH 500 0
DWIDTH 10 0
BBX 7 10 1 0
BITMAP
10
10
10
FE
10
10
10
00
00
FE
ENDCHAR
STARTCHAR uni0009
ENCODING 9
SWIDTH 500 0
DWIDTH 10 0
BBX 8 15 1 -1
BITMAP
88
88
C8
A8
98
88
88
00
10
10
10
10
10
10
1F
ENDCHAR
STARTCHAR uni000A
ENCODING 10
SWIDTH 500 0
DWIDTH 10 0
BBX 8 15 1 -1
BITMAP
88
88
88
50
50
20
20
00
1F
04
04
04
04
04
04
ENDCHAR
STARTCHAR uni000B
ENCODING 11
SWIDTH 500 0
DWIDTH 10 0
BBX 5 10 0 6
BITMAP
08
08
08
08
08
08
08
08
08
F8
ENDCHAR
STARTCHAR uni000C
ENCODING 12
SWIDTH 500 0
DWIDTH 10 0
BBX 5 11 0 -4
BITMAP
F8
08
08
08
08
08
08
08
08
08
08
ENDCHAR
STARTCHAR uni000D
ENCODING 13
SWIDTH 500 0
DWIDTH 10 0
BBX 6 11 4 -4
BITMAP
FC
80
80
80
80
80
80
80
80
80
80
ENDCHAR
STARTCHAR uni000E
ENCODING 14
SWIDTH 500 0
DWIDTH 10 0
BBX 6 10 4 6
BITMAP
80
80
80
80
80
80
80
80
80
FC
ENDCHAR
STARTCHAR uni000F
ENCODING 15
SWIDTH 500 0
DWIDTH 10 0
BBX 10 20 0 -4
BITMAP
0800
0800
0800
0800
0800
0800
0800
0800
0800
FFC0
0800
0800
0800
0800
0800
0800
0800
0800
0800
0800
ENDCHAR
STARTCHAR uni0012
ENCODING 18
SWIDTH 500 0
DWIDTH 10 0
BBX 10 1 0 6
BITMAP
FFC0
ENDCHAR
STARTCHAR uni0015
ENCODING 21
SWIDTH 500 0
DWIDTH 10 0
BBX 6 20 4 -4
BITMAP
80
80
80
80
80
80
80
80
80
FC
80
80
80
80
80
80
80
80
80
80
ENDCHAR
STARTCHAR uni0016
ENCODING 22
SWIDTH 500 0
DWIDTH 10 0
BBX 5 20 0 -4
BITMAP
08
08
08
08
08
08
08
08
08
F8
08
08
08
08
08
08
08
08
08
08
ENDCHAR
STARTCHAR uni0017
ENCODING 23
SWIDTH 500 0
DWIDTH 10 0
BBX 10 10 0 6
BITMAP
0800
0800
0800
0800
0800
0800
0800
0800
0800
FFC0
ENDCHAR
STARTCHAR uni0018
ENCODING 24
SWIDTH 500 0
DWIDTH 10 0
BBX 10 11 0 -4
BITMAP
FFC0
0800
0800
0800
0800
0800
0800
0800
0800
0800
0800
ENDCHAR
STARTCHAR uni0019
ENCODING 25
SWIDTH 500 0
DWIDTH 10 0
BBX 1 20 4 -4
BITMAP
80
80
80
80
80
80
80
80
80
80
80
80
80
80
80
80
80
80
80
80
ENDCHAR
STARTCHAR uni001A
ENCODING 26
SWIDTH 500 0
DWIDTH 10 0
BBX 7 13 1 0
BITMAP
04
08
10
20
40
80
40
20
10
08
04
00
FE
ENDCHAR
STARTCHAR uni001B
ENCODING 27
SWIDTH 500 0
DWIDTH 10 0
BBX 7 13 1 0
BITMAP
40
20
10
08
04
02
04
08
10
20
40
00
FE
ENDCHAR
STARTCHAR uni001C
ENCODING 28
SWIDTH 500 0
DWIDTH 10 0
BBX 7 9 1 0
BITMAP
FE
82
82
82
82
82
82
82
82
ENDCHAR
STARTCHAR uni001D
ENCODING 29
SWIDTH 500 0
DWIDTH 10 0
BBX 7 7 1 3
BITMAP
02
FE
08
10
20
FE
80
ENDCHAR
STARTCHAR uni001E
ENCODING 30
SWIDTH 500 0
DWIDTH 10 0
BBX 7 13 1 0
BITMAP
38
44
40
40
40
40
F8
40
40
40
40
42
FE
ENDCHAR
STARTCHAR uni001F
ENCODING 31
SWIDTH 500 0
DWIDTH 10 0
BBX 2 2 4 5
BITMAP
C0
C0
ENDCHAR
STARTCHAR space
ENCODING 32
SWIDTH 500 0
DWIDTH 10 0
BBX 1 1 9 -4
BITMAP
00
ENDCHAR
STARTCHAR exclam
ENCODING 33
SWIDTH 500 0
DWIDTH 10 0
BBX 1 13 4 0
BITMAP
80
80
80
80
80
80
80
80
80
00
00
80
80
ENDCHAR
STARTCHAR quotedbl
ENCODING 34
SWIDTH 500 0
DWIDTH 10 0
BBX 5 4 2 9
BITMAP
88
88
88
88
ENDCHAR
STARTCHAR numbersign
ENCODING 35
SWIDTH 500 0
DWIDTH 10 0
BBX 7 12 1 0
BITMAP
44
44
44
FE
44
44
44
44
FE
44
44
44
ENDCHAR
STARTCHAR dollar
ENCODING 36
SWIDTH 500 0
DWIDTH 10 0
BBX 7 14 1 -1
BITMAP
10
10
7C
92
90
90
7C
12
12
12
92
7C
10
10
ENDCHAR
STARTCHAR percent
ENCODING 37
SWIDTH 500 0
DWIDTH 10 0
BBX 8 12 1 0
BITMAP
E2
A2
E4
04
08
08
10
10
20
27
45
47
ENDCHAR
STARTCHAR ampersand
ENCODING 38
SWIDTH 500 0
DWIDTH 10 0
BBX 8 12 1 0
BITMAP
38
44
44
28
10
29
45
82
82
82
45
39
ENDCHAR
STARTCHAR quotesingle
ENCODING 39
SWIDTH 500 0
DWIDTH 10 0
BBX 1 5 4 8
BITMAP
80
80
80
80
80
ENDCHAR
STARTCHAR parenleft
ENCODING 40
SWIDTH 500 0
DWIDTH 10 0
BBX 4 15 2 -2
BITMAP
10
20
40
40
80
80
80
80
80
80
80
40
40
20
10
ENDCHAR
STARTCHAR parenright
ENCODING 41
SWIDTH 500 0
DWIDTH 10 0
BBX 4 15 3 -2
BITMAP
80
40
20
20
10
10
10
10
10
10
10
20
20
40
80
ENDCHAR
STARTCHAR asterisk
ENCODING 42
SWIDTH 500 0
DWIDTH 10 0
BBX 7 7 1 2
BITMAP
44
28
10
FE
10
28
44
ENDCHAR
STARTCHAR plus
ENCODING 43
SWIDTH 500 0
DWIDTH 10 0
BBX 7 7 1 2
BITMAP
10
10
10
FE
10
10
10
ENDCHAR
STARTCHAR comma
ENCODING 44
SWIDTH 500 0
DWIDTH 10 0
BBX 2 5 3 -3
BITMAP
C0
C0
40
40
80
ENDCHAR
STARTCHAR hyphen
ENCODING 45
SWIDTH 500 0
DWIDTH 10 0
BBX 7 1 1 5
BITMAP
FE
ENDCHAR
STARTCHAR period
ENCODING 46
SWIDTH 500 0
DWIDTH 10 0
BBX 2 2 3 0
BITMAP
C0
C0
ENDCHAR
STARTCHAR slash
ENCODING 47
SWIDTH 500 0
DWIDTH 10 0
BBX 6 12 2 0
BITMAP
04
04
08
08
10
10
20
20
40
40
80
80
ENDCHAR
STARTCHAR zero
ENCODING 48
SWIDTH 500 0
DWIDTH 10 0
BBX 7 11 1 0
BITMAP
38
44
82
86
8A
92
A2
C2
82
44
38
ENDCHAR
STARTCHAR one
ENCODING 49
SWIDTH 500 0
DWIDTH 10 0
BBX 7 11 1 0
BITMAP
10
30
50
90
10
10
10
10
10
10
FE
ENDCHAR
STARTCHAR two
ENCODING 50
SWIDTH 500 0
DWIDTH 10 0
BBX 7 11 1 0
BITMAP
7C
82
02
02
02
04
08
10
20
40
FE
ENDCHAR
STARTCHAR three
ENCODING 51
SWIDTH 500 0
DWIDTH 10 0
BBX 7 11 1 0
BITMAP
7C
82
02
02
02
3C
02
02
02
82
7C
ENDCHAR
STARTCHAR four
ENCODING 52
SWIDTH 500 0
DWIDTH 10 0
BBX 7 11 1 0
BITMAP
02
06
0A
12
22
42
82
FE
02
02
02
ENDCHAR
STARTCHAR five
ENCODING 53
SWIDTH 500 0
DWIDTH 10 0
BBX 7 11 1 0
BITMAP
FE
80
80
BC
C6
82
02
02
02
82
7C
ENDCHAR
STARTCHAR six
ENCODING 54
SWIDTH 500 0
DWIDTH 10 0
BBX 7 11 1 0
BITMAP
3C
40
80
80
80
FC
82
82
82
82
7C
ENDCHAR
STARTCHAR seven
ENCODING 55
SWIDTH 500 0
DWIDTH 10 0
BBX 7 11 1 0
BITMAP
FE
02
02
04
04
08
08
10
10
10
10
ENDCHAR
STARTCHAR eight
ENCODING 56
SWIDTH 500 0
DWIDTH 10 0
BBX 7 11 1 0
BITMAP
7C
82
82
82
82
7C
82
82
82
82
7C
ENDCHAR
STARTCHAR nine
ENCODING 57
SWIDTH 500 0
DWIDTH 10 0
BBX 7 11 1 0
BITMAP
7C
82
82
82
82
7E
02
02
02
04
78
ENDCHAR
STARTCHAR colon
ENCODING 58
SWIDTH 500 0
DWIDTH 10 0
BBX 2 7 4 2
BITMAP
C0
C0
00
00
00
C0
C0
ENDCHAR
STARTCHAR semicolon
ENCODING 59
SWIDTH 500 0
DWIDTH 10 0
BBX 2 10 4 -3
BITMAP
C0
C0
00
00
00
C0
C0
40
40
80
ENDCHAR
STARTCHAR less
ENCODING 60
SWIDTH 500 0
DWIDTH 10 0
BBX 5 9 2 1
BITMAP
08
10
20
40
80
40
20
10
08
ENDCHAR
STARTCHAR equal
ENCODING 61
SWIDTH 500 0
DWIDTH 10 0
BBX 7 5 1 3
BITMAP
FE
00
00
00
FE
ENDCHAR
STARTCHAR greater
ENCODING 62
SWIDTH 500 0
DWIDTH 10 0
BBX 5 9 3 1
BITMAP
80
40
20
10
08
10
20
40
80
ENDCHAR
STARTCHAR question
ENCODING 63
SWIDTH 500 0
DWIDTH 10 0
BBX 7 13 1 0
BITMAP
38
44
82
82
02
04
08
10
10
00
00
10
10
ENDCHAR
STARTCHAR at
ENCODING 64
SWIDTH 500 0
DWIDTH 10 0
BBX 8 13 1 0
BITMAP
3C
42
81
99
A5
A5
A5
A5
A5
9E
80
40
3E
ENDCHAR
STARTCHAR A
ENCODING 65
SWIDTH 500 0
DWIDTH 10 0
BBX 7 11 1 0
BITMAP
38
44
82
82
82
82
FE
82
82
82
82
ENDCHAR
STARTCHAR B
ENCODING 66
SWIDTH 500 0
DWIDTH 10 0
BBX 7 11 1 0
BITMAP
F8
84
82
82
84
F8
84
82
82
84
F8
ENDCHAR
STARTCHAR C
ENCODING 67
SWIDTH 500 0
DWIDTH 10 0
BBX 7 11 1 0
BITMAP
3C
42
80
80
80
80
80
80
80
42
3C
ENDCHAR
STARTCHAR D
ENCODING 68
SWIDTH 500 0
DWIDTH 10 0
BBX 7 11 1 0
BITMAP
F8
84
82
82
82
82
82
82
82
84
F8
ENDCHAR
STARTCHAR E
ENCODING 69
SWIDTH 500 0
DWIDTH 10 0
BBX 7 11 1 0
BITMAP
FE
80
80
80
80
F8
80
80
80
80
FE
ENDCHAR
STARTCHAR F
ENCODING 70
SWIDTH 500 0
DWIDTH 10 0
BBX 7 11 1 0
BITMAP
FE
80
80
80
80
F8
80
80
80
80
80
ENDCHAR
STARTCHAR G
ENCODING 71
SWIDTH 500 0
DWIDTH 10 0
BBX 7 11 1 0
BITMAP
3C
42
80
80
80
9E
82
82
82
42
3C
ENDCHAR
STARTCHAR H
ENCODING 72
SWIDTH 500 0
DWIDTH 10 0
BBX 7 11 1 0
BITMAP
82
82
82
82
82
FE
82
82
82
82
82
ENDCHAR
STARTCHAR I
ENCODING 73
SWIDTH 500 0
DWIDTH 10 0
BBX 7 11 1 0
BITMAP
FE
10
10
10
10
10
10
10
10
10
FE
ENDCHAR
STARTCHAR J
ENCODING 74
SWIDTH 500 0
DWIDTH 10 0
BBX 7 11 1 0
BITMAP
3E
04
04
04
04
04
04
04
84
84
78
ENDCHAR
STARTCHAR K
ENCODING 75
SWIDTH 500 0
DWIDTH 10 0
BBX 7 11 1 0
BITMAP
82
84
88
90
A0
C0
A0
90
88
84
82
ENDCHAR
STARTCHAR L
ENCODING 76
SWIDTH 500 0
DWIDTH 10 0
BBX 7 11 1 0
BITMAP
80
80
80
80
80
80
80
80
80
80
FE
ENDCHAR
STARTCHAR M
ENCODING 77
SWIDTH 500 0
DWIDTH 10 0
BBX 7 11 1 0
BITMAP
82
C6
C6
AA
AA
92
92
82
82
82
82
ENDCHAR
STARTCHAR N
ENCODING 78
SWIDTH 500 0
DWIDTH 10 0
BBX 7 11 1 0
BITMAP
C2
C2
A2
A2
92
92
8A
8A
86
86
82
ENDCHAR
STARTCHAR O
ENCODING 79
SWIDTH 500 0
DWIDTH 10 0
BBX 7 11 1 0
BITMAP
7C
82
82
82
82
82
82
82
82
82
7C
ENDCHAR
STARTCHAR P
ENCODING 80
SWIDTH 500 0
DWIDTH 10 0
BBX 7 11 1 0
BITMAP
FC
82
82
82
82
FC
80
80
80
80
80
ENDCHAR
STARTCHAR Q
ENCODING 81
SWIDTH 500 0
DWIDTH 10 0
BBX 7 13 1 -2
BITMAP
7C
82
82
82
82
82
82
82
92
92
7C
04
02
ENDCHAR
STARTCHAR R
ENCODING 82
SWIDTH 500 0
DWIDTH 10 0
BBX 7 11 1 0
BITMAP
FC
82
82
82
82
FC
A0
90
88
84
82
ENDCHAR
STARTCHAR S
ENCODING 83
SWIDTH 500 0
DWIDTH 10 0
BBX 7 11 1 0
BITMAP
7C
82
80
80
40
38
04
02
02
82
7C
ENDCHAR
STARTCHAR T
ENCODING 84
SWIDTH 500 0
DWIDTH 10 0
BBX 7 11 1 0
BITMAP
FE
10
10
10
10
10
10
10
10
10
10
ENDCHAR
STARTCHAR U
ENCODING 85
SWIDTH 500 0
DWIDTH 10 0
BBX 7 11 1 0
BITMAP
82
82
82
82
82
82
82
82
82
44
38
ENDCHAR
STARTCHAR V
ENCODING 86
SWIDTH 500 0
DWIDTH 10 0
BBX 7 11 1 0
BITMAP
82
82
82
44
44
44
28
28
28
10
10
ENDCHAR
STARTCHAR W
ENCODING 87
SWIDTH 500 0
DWIDTH 10 0
BBX 7 11 1 0
BITMAP
82
82
82
82
92
92
AA
AA
C6
C6
82
ENDCHAR
STARTCHAR X
ENCODING 88
SWIDTH 500 0
DWIDTH 10 0
BBX 7 11 1 0
BITMAP
82
82
44
44
28
10
28
44
44
82
82
ENDCHAR
STARTCHAR Y
ENCODING 89
SWIDTH 500 0
DWIDTH 10 0
BBX 7 11 1 0
BITMAP
82
82
44
44
28
28
10
10
10
10
10
ENDCHAR
STARTCHAR Z
ENCODING 90
SWIDTH 500 0
DWIDTH 10 0
BBX 7 11 1 0
BITMAP
FE
04
04
08
08
10
10
20
20
40
FE
ENDCHAR
STARTCHAR bracketleft
ENCODING 91
SWIDTH 500 0
DWIDTH 10 0
BBX 4 15 3 -2
BITMAP
F0
80
80
80
80
80
80
80
80
80
80
80
80
80
F0
ENDCHAR
STARTCHAR backslash
ENCODING 92
SWIDTH 500 0
DWIDTH 10 0
BBX 6 12 2 0
BITMAP
80
80
40
40
20
20
10
10
08
08
04
04
ENDCHAR
STARTCHAR bracketright
ENCODING 93
SWIDTH 500 0
DWIDTH 10 0
BBX 4 15 2 -2
BITMAP
F0
10
10
10
10
10
10
10
10
10
10
10
10
10
F0
ENDCHAR
STARTCHAR asciicircum
ENCODING 94
SWIDTH 500 0
DWIDTH 10 0
BBX 7 4 1 7
BITMAP
10
28
44
82
ENDCHAR
STARTCHAR underscore
ENCODING 95
SWIDTH 500 0
DWIDTH 10 0
BBX 7 1 1 -1
BITMAP
FE
ENDCHAR
STARTCHAR grave
ENCODING 96
SWIDTH 500 0
DWIDTH 10 0
BBX 3 4 3 9
BITMAP
80
80
40
20
ENDCHAR
STARTCHAR a
ENCODING 97
SWIDTH 500 0
DWIDTH 10 0
BBX 7 9 1 0
BITMAP
3C
42
82
82
82
82
86
8A
72
ENDCHAR
STARTCHAR b
ENCODING 98
SWIDTH 500 0
DWIDTH 10 0
BBX 7 12 1 0
BITMAP
80
80
80
B8
C4
82
82
82
82
82
C4
B8
ENDCHAR
STARTCHAR c
ENCODING 99
SWIDTH 500 0
DWIDTH 10 0
BBX 7 9 1 0
BITMAP
3C
42
80
80
80
80
80
42
3C
ENDCHAR
STARTCHAR d
ENCODING 100
SWIDTH 500 0
DWIDTH 10 0
BBX 7 12 1 0
BITMAP
02
02
02
3A
46
82
82
82
82
82
46
3A
ENDCHAR
STARTCHAR e
ENCODING 101
SWIDTH 500 0
DWIDTH 10 0
BBX 7 9 1 0
BITMAP
3C
42
82
82
FC
80
80
40
3C
ENDCHAR
STARTCHAR f
ENCODING 102
SWIDTH 500 0
DWIDTH 10 0
BBX 7 12 1 0
BITMAP
3C
42
40
40
40
F8
40
40
40
40
40
40
ENDCHAR
STARTCHAR g
ENCODING 103
SWIDTH 500 0
DWIDTH 10 0
BBX 7 12 1 -3
BITMAP
3A
46
82
82
82
82
82
46
3A
02
84
78
ENDCHAR
STARTCHAR h
ENCODING 104
SWIDTH 500 0
DWIDTH 10 0
BBX 7 12 1 0
BITMAP
80
80
80
B8
C4
82
82
82
82
82
82
82
ENDCHAR
STARTCHAR i
ENCODING 105
SWIDTH 500 0
DWIDTH 10 0
BBX 5 13 2 0
BITMAP
20
20
00
00
E0
20
20
20
20
20
20
20
F8
ENDCHAR
STARTCHAR j
ENCODING 106
SWIDTH 500 0
DWIDTH 10 0
BBX 6 16 1 -3
BITMAP
04
04
00
00
1C
04
04
04
04
04
04
04
04
04
88
70
ENDCHAR
STARTCHAR k
ENCODING 107
SWIDTH 500 0
DWIDTH 10 0
BBX 7 12 1 0
BITMAP
80
80
80
80
84
88
90
E0
90
88
84
82
ENDCHAR
STARTCHAR l
ENCODING 108
SWIDTH 500 0
DWIDTH 10 0
BBX 7 12 1 0
BITMAP
E0
20
20
20
20
20
20
20
20
20
22
1C
ENDCHAR
STARTCHAR m
ENCODING 109
SWIDTH 500 0
DWIDTH 10 0
BBX 7 9 1 0
BITMAP
EC
92
92
92
92
92
92
82
82
ENDCHAR
STARTCHAR n
ENCODING 110
SWIDTH 500 0
DWIDTH 10 0
BBX 7 9 1 0
BITMAP
9C
A2
C2
82
82
82
82
82
82
ENDCHAR
STARTCHAR o
ENCODING 111
SWIDTH 500 0
DWIDTH 10 0
BBX 7 9 1 0
BITMAP
38
44
82
82
82
82
82
44
38
ENDCHAR
STARTCHAR p
ENCODING 112
SWIDTH 500 0
DWIDTH 10 0
BBX 7 12 1 -3
BITMAP
B8
C4
82
82
82
82
82
C4
B8
80
80
80
ENDCHAR
STARTCHAR q
ENCODING 113
SWIDTH 500 0
DWIDTH 10 0
BBX 7 12 1 -3
BITMAP
3A
46
82
82
82
82
82
46
3A
02
02
02
ENDCHAR
STARTCHAR r
ENCODING 114
SWIDTH 500 0
DWIDTH 10 0
BBX 7 9 1 0
BITMAP
9C
A2
C0
80
80
80
80
80
80
ENDCHAR
STARTCHAR s
ENCODING 115
SWIDTH 500 0
DWIDTH 10 0
BBX 7 9 1 0
BITMAP
7C
82
80
40
38
04
02
82
7C
ENDCHAR
STARTCHAR t
ENCODING 116
SWIDTH 500 0
DWIDTH 10 0
BBX 7 12 1 0
BITMAP
40
40
40
FC
40
40
40
40
40
40
42
3C
ENDCHAR
STARTCHAR u
ENCODING 117
SWIDTH 500 0
DWIDTH 10 0
BBX 7 9 1 0
BITMAP
82
82
82
82
82
82
86
8A
72
ENDCHAR
STARTCHAR v
ENCODING 118
SWIDTH 500 0
DWIDTH 10 0
BBX 7 9 1 0
BITMAP
82
82
82
44
44
28
28
10
10
ENDCHAR
STARTCHAR w
ENCODING 119
SWIDTH 500 0
DWIDTH 10 0
BBX 7 9 1 0
BITMAP
82
82
82
82
92
92
92
92
6C
ENDCHAR
STARTCHAR x
ENCODING 120
SWIDTH 500 0
DWIDTH 10 0
BBX 7 9 1 0
BITMAP
82
44
28
10
10
10
28
44
82
ENDCHAR
STARTCHAR y
ENCODING 121
SWIDTH 500 0
DWIDTH 10 0
BBX 7 12 1 -3
BITMAP
82
82
82
44
44
44
28
28
10
10
20
C0
ENDCHAR
STARTCHAR z
ENCODING 122
SWIDTH 500 0
DWIDTH 10 0
BBX 7 9 1 0
BITMAP
FE
02
04
08
10
20
40
80
FE
ENDCHAR
STARTCHAR braceleft
ENCODING 123
SWIDTH 500 0
DWIDTH 10 0
BBX 6 15 1 -2
BITMAP
0C
10
10
10
10
10
20
C0
20
10
10
10
10
10
0C
ENDCHAR
STARTCHAR bar
ENCODING 124
SWIDTH 500 0
DWIDTH 10 0
BBX 1 17 4 -2
BITMAP
80
80
80
80
80
80
80
80
80
80
80
80
80
80
80
80
80
ENDCHAR
STARTCHAR braceright
ENCODING 125
SWIDTH 500 0
DWIDTH 10 0
BBX 6 15 2 -2
BITMAP
C0
20
20
20
20
20
10
0C
10
20
20
20
20
20
C0
ENDCHAR
STARTCHAR asciitilde
ENCODING 126
SWIDTH 500 0
DWIDTH 10 0
BBX 7 4 1 4
BITMAP
62
92
92
8C
ENDCHAR
STARTCHAR mu
ENCODING 181
SWIDTH 500 0
DWIDTH 10 0
BBX 7 12 1 -3
BITMAP
82
82
82
82
82
82
82
86
FA
80
80
80
ENDCHAR
STARTCHAR periodcentered
ENCODING 183
SWIDTH 500 0
DWIDTH 10 0
BBX 1 2 4 5
BITMAP
80
80
ENDCHAR
STARTCHAR Scommaaccent
ENCODING 536
SWIDTH 500 0
DWIDTH 10 0
BBX 7 16 1 -3
BITMAP
7C
82
82
80
80
80
7C
02
02
02
82
82
7C
10
10
20
ENDCHAR
STARTCHAR scommaaccent
ENCODING 537
SWIDTH 500 0
DWIDTH 10 0
BBX 7 12 1 -3
BITMAP
7C
82
80
80
7C
02
02
82
7C
10
10
20
ENDCHAR
STARTCHAR Omega
ENCODING 8486
SWIDTH 500 0
DWIDTH 10 0
BBX 7 13 1 0
BITMAP
7C
82
82
82
82
82
82
82
82
44
28
28
EE
ENDCHAR
STARTCHAR Delta
ENCODING 8710
SWIDTH 500 0
DWIDTH 10 0
BBX 7 13 1 0
BITMAP
10
10
10
28
28
28
44
44
44
82
82
82
FE
ENDCHAR
STARTCHAR uniE0B0
ENCODING 57520
SWIDTH 500 0
DWIDTH 10 0
BBX 10 20 0 -4
BITMAP
8000
C000
E000
F000
F800
FC00
FE00
FF00
FF80
FFC0
FFC0
FF80
FF00
FE00
FC00
F800
F000
E000
C000
8000
ENDCHAR
STARTCHAR uniE0B1
ENCODING 57521
SWIDTH 500 0
DWIDTH 10 0
BBX 10 20 0 -4
BITMAP
8000
C000
6000
3000
1800
0C00
0600
0300
0180
00C0
00C0
0180
0300
0600
0C00
1800
3000
6000
C000
8000
ENDCHAR
STARTCHAR uniE0B2
ENCODING 57522
SWIDTH 500 0
DWIDTH 10 0
BBX 10 20 0 -4
BITMAP
0040
00C0
01C0
01C0
03C0
07C0
0FC0
1FC0
3FC0
7FC0
FFC0
7FC0
3FC0
1FC0
0FC0
07C0
03C0
01C0
00C0
0040
ENDCHAR
STARTCHAR uniE0B3
ENCODING 57523
SWIDTH 500 0
DWIDTH 10 0
BBX 10 20 0 -4
BITMAP
0040
00C0
0180
0300
0600
0C00
1800
3000
6000
C000
C000
6000
3000
1800
0C00
0600
0300
0180
00C0
0040
ENDCHAR
STARTCHAR uniE0B4
ENCODING 57524
SWIDTH 500 0
DWIDTH 10 0
BBX 10 20 0 -4
BITMAP
F000
FC00
FE00
FF00
FF80
FF80
FFC0
FFC0
FFC0
FFC0
FFC0
FFC0
FFC0
FFC0
FF80
FF80
FF00
FE00
FC00
F000
ENDCHAR
STARTCHAR uniE0B5
ENCODING 57525
SWIDTH 500 0
DWIDTH 10 0
BBX 10 20 0 -4
BITMAP
F000
FC00
0E00
0300
0180
0180
00C0
00C0
00C0
00C0
00C0
00C0
00C0
00C0
0180
0180
0300
0E00
FC00
F000
ENDCHAR
STARTCHAR uniE0B6
ENCODING 57526
SWIDTH 500 0
DWIDTH 10 0
BBX 10 20 0 -4
BITMAP
03C0
0FC0
1FC0
3FC0
7FC0
7FC0
FFC0
FFC0
FFC0
FFC0
FFC0
FFC0
FFC0
FFC0
7FC0
7FC0
3FC0
1FC0
0FC0
03C0
ENDCHAR
STARTCHAR uniE0B7
ENCODING 57527
SWIDTH 500 0
DWIDTH 10 0
BBX 10 20 0 -4
BITMAP
03C0
0FC0
1C00
3000
6000
6000
C000
C000
C000
C000
C000
C000
C000
C000
6000
6000
3000
1C00
0FC0
03C0
ENDCHAR
STARTCHAR uniE0B8
ENCODING 57528
SWIDTH 500 0
DWIDTH 10 0
BBX 10 20 0 -4
BITMAP
8000
8000
C000
C000
E000
E000
F000
F000
F800
F800
FC00
FC00
FE00
FE00
FF00
FF00
FF80
FF80
FFC0
FFC0
ENDCHAR
STARTCHAR uniE0B9
ENCODING 57529
SWIDTH 500 0
DWIDTH 10 0
BBX 3 16 0 0
BITMAP
80
00
00
00
00
C0
00
00
00
00
C0
00
00
00
00
60
ENDCHAR
STARTCHAR uniE0BA
ENCODING 57530
SWIDTH 500 0
DWIDTH 10 0
BBX 10 20 0 -4
BITMAP
0040
0040
00C0
00C0
01C0
01C0
03C0
03C0
07C0
07C0
0FC0
0FC0
1FC0
1FC0
3FC0
3FC0
7FC0
7FC0
FFC0
FFC0
ENDCHAR
STARTCHAR uniE0BB
ENCODING 57531
SWIDTH 500 0
DWIDTH 10 0
BBX 10 20 0 -4
BITMAP
0040
00C0
00C0
0180
0180
0300
0300
0600
0600
0C00
0C00
1800
1800
3000
3000
6000
6000
C000
C000
8000
ENDCHAR
STARTCHAR uniE0BC
ENCODING 57532
SWIDTH 500 0
DWIDTH 10 0
BBX 10 20 0 -4
BITMAP
FFC0
FFC0
FF80
FF80
FF00
FF00
FE00
FE00
FC00
FC00
F800
F800
F000
F000
E000
E000
C000
C000
8000
8000
ENDCHAR
STARTCHAR uniE0BD
ENCODING 57533
SWIDTH 500 0
DWIDTH 10 0
BBX 10 20 0 -4
BITMAP
0040
00C0
00C0
0180
0180
0300
0300
0600
0600
0C00
0C00
1800
1800
3000
3000
6000
6000
C000
C000
8000
ENDCHAR
STARTCHAR uniE0BE
ENCODING 57534
SWIDTH 500 0
DWIDTH 10 0
BBX 10 20 0 -4
BITMAP
FFC0
FFC0
7FC0
7FC0
3FC0
3FC0
1FC0
1FC0
0FC0
0FC0
07C0
07C0
03C0
03C0
01C0
01C0
00C0
00C0
0040
0040
ENDCHAR
STARTCHAR uniE0BF
ENCODING 57535
SWIDTH 500 0
DWIDTH 10 0
BBX 10 20 0 -4
BITMAP
8000
C000
C000
6000
6000
3000
3000
1800
1800
0C00
0C00
0600
0600
0300
0300
0180
0180
00C0
00C0
0040
ENDCHAR
ENDFONT
